<svg xmlns="http://www.w3.org/2000/svg" width="235" height="140" fill="none" viewBox="0 0 235 140"><g fill="#1D436A" clip-path="url(#clip0_120_1925)"><path d="M77.88 99.24h5.21V30.89H52v5.21a1 1 0 0 0 1 1h23.85v36.21h-5.16a1 1 0 0 0-1 1v1a1 1 0 0 0 1 1h5.16v3.13h-5.16a1 1 0 0 0-1 1v1.08a1 1 0 0 0 1 1h5.16v3.06h-5.16a1 1 0 0 0-1 1v1a1 1 0 0 0 1 1h5.16v9.41a1 1 0 0 0 1.03 1.25M157 49.53h14.83l1.89-4.8a1 1 0 0 0-1-1.41h-16.67a1 1 0 0 0-1 1.41zM161.36 58.85h6.07a1 1 0 0 0 1-.66l2.19-5.56h-12.41l2.19 5.56a1 1 0 0 0 .96.66M171.54 99.24a1 1 0 0 0 1-.65l3.87-9.79h10.28v9.41a1 1 0 0 0 1 1h5.17V30.08l-27.32 69.16zm15.09-36.42v10.49h-4.16zm-5.36 13.57h5.38v3.13H180zm-2.48 6.28h7.86v3.06h-9.07zM135.88 99.24h5.19a1 1 0 0 0 1-1V88.8h10.31l3.87 9.79a1 1 0 0 0 1 .65h6L135.88 30zm6.23-36.54 4.19 10.61h-4.19zm0 13.69h5.41l1.24 3.13h-6.65zm0 6.28H150l1.21 3.06h-9.1z"/><path d="m185.94 22.24-21.53 54.51-21.56-54.51a1 1 0 0 0-1-.66h-6l28.47 72.08 28.54-72.06h-6a1 1 0 0 0-.92.64M219.77 43.32h-13.43a1 1 0 0 0-1 1v5.09h15.46v-5.06a1 1 0 0 0-.293-.737 1 1 0 0 0-.737-.292M205.31 57.72a1 1 0 0 0 1 1h13.43a1 1 0 0 0 1-1v-5.09h-15.43zM117.24 22.62a1 1 0 0 0-1-1H53a1 1 0 0 0-1 1v5.17h65.27zM117.24 36.1v-5.23H86.18v68.35h5.18a1 1 0 0 0 1-1V88.8h5.14a1 1 0 0 0 1-1v-1a1 1 0 0 0-1-1h-5.09v-3.13h5.14a1 1 0 0 0 1-1v-1.11a1 1 0 0 0-1-1h-5.14v-3.17h5.14a1 1 0 0 0 1-1v-1a1 1 0 0 0-1-1h-5.14V37.14h23.81a1 1 0 0 0 .954-.641 1 1 0 0 0 .066-.4"/><path d="M41.51 49.53h18.77a1 1 0 0 1 1 1v41.89a23.298 23.298 0 0 0 39.775 16.475 23.3 23.3 0 0 0 6.825-16.475V50.56a1 1 0 0 1 1-1h14.46v-5.21a1 1 0 0 0-1-1h-19.57a1 1 0 0 0-1 1v48.07a17.09 17.09 0 0 1-34.17 0V44.35a1 1 0 0 0-1-1h-25a32.62 32.62 0 0 0-27.75 15.34 1 1 0 0 0 .37 1.43l4.46 2.58a26.4 26.4 0 0 1 22.83-13.17"/><path d="M123.44 57.81v-5.18h-12.39v39.71a26.41 26.41 0 0 1-26.405 25.897A26.41 26.41 0 0 1 58.24 92.341V52.66h-16.7a23.29 23.29 0 0 0-20.17 11.59l4.51 2.6a1 1 0 0 0 1.37-.3 17.09 17.09 0 0 1 14.26-7.7H52v33.49a32.62 32.62 0 0 0 32.62 32.62 32.623 32.623 0 0 0 32.62-32.62V58.85h5.17a1 1 0 0 0 .741-.296.99.99 0 0 0 .289-.744"/><path d="M126.6 22.61v50.7h-5.16a1 1 0 0 0-1 1v1a1 1 0 0 0 1 1h5.16v3.13h-5.16a1 1 0 0 0-1 1v1.08a1 1 0 0 0 1 1h5.16v3.06h-5.16a1 1 0 0 0-1 1v1a1 1 0 0 0 1 1h5.16v9.41a1 1 0 0 0 1 1h5.15V21.58h-5.15a1 1 0 0 0-.932.638 1 1 0 0 0-.068.392M219.77 73.31H202.2V22.62a1 1 0 0 0-1-1H196v77.62h5.2a1 1 0 0 0 1-1V88.8h17.57a1 1 0 0 0 1-1v-1a1 1 0 0 0-1-1H202.2v-3.13h17.57a1 1 0 0 0 1-1v-1.11a1 1 0 0 0-1-1H202.2v-3.17h17.57a1 1 0 0 0 1-1v-1a1 1 0 0 0-.263-.76 1 1 0 0 0-.737-.32M47.86 73.31H31.31a1.04 1.04 0 0 0-1.04 1.04v1c0 .575.465 1.04 1.04 1.04h16.55a1.04 1.04 0 0 0 1.04-1.04v-1a1.04 1.04 0 0 0-1.04-1.04M47.86 85.73H31.31a1.04 1.04 0 0 0-1.04 1.04v.99c0 .575.465 1.04 1.04 1.04h16.55a1.04 1.04 0 0 0 1.04-1.04v-.99a1.04 1.04 0 0 0-1.04-1.04M47.86 79.52H31.31a1.04 1.04 0 0 0-1.04 1.04v1.07c0 .574.465 1.04 1.04 1.04h16.55a1.04 1.04 0 0 0 1.04-1.04v-1.07a1.04 1.04 0 0 0-1.04-1.04"/><path d="M219.77 73.31H202.2V22.62a1 1 0 0 0-1-1H196v77.62h5.2a1 1 0 0 0 1-1V88.8h17.57a1 1 0 0 0 1-1v-1a1 1 0 0 0-1-1H202.2v-3.13h17.57a1 1 0 0 0 1-1v-1.11a1 1 0 0 0-1-1H202.2v-3.17h17.57a1 1 0 0 0 1-1v-1a1 1 0 0 0-.263-.76 1 1 0 0 0-.737-.32"/></g><defs><clipPath id="clip0_120_1925"><path fill="white" d="M0 0h235v140H0z"/></clipPath></defs></svg>